<svg xmlns="http://www.w3.org/2000/svg" viewBox="0 0 53.06 53.05"><defs><style>.cls-1{fill:#ff73ff;}</style></defs><title>facebook-icon</title><g id="Layer_2" data-name="Layer 2"><g id="header_-_footer" data-name="header - footer"><path class="cls-1" d="M26.51,53.05A26.21,26.21,0,0,1,0,26.58C0,11.49,11.37,0,26.57,0,42.83,0,53.05,13,53.06,26.51A26.46,26.46,0,0,1,26.51,53.05M34.38,10.5H29.53c-4.71,0-7.26,2.55-7.28,7.24,0,.9,0,1.8,0,2.81H19v6.71h3.29V43.85H29V27.2h4.89c.22-2.27.42-4.39.64-6.68h-5.3c0-.94,0-1.73,0-2.51,0-1.21.57-1.76,1.78-1.72s2.18,0,3.34,0Z"/></g></g></svg>