<svg xmlns="http://www.w3.org/2000/svg" viewBox="0 0 283.99 277.78"><defs><style>.cls-1{fill:#ff062b;}.cls-2{fill:#ffa91f;}.cls-3{fill:#020309;}</style></defs><title>flower-two_1</title><g id="Layer_2" data-name="Layer 2"><g id="FONDOS"><path class="cls-1" d="M257.73,197.62c-4.54,15.38,9.44,20.28,15.73,18.88,3.63-.81,7.71-3.12,10.53-4.94V225.4a149.33,149.33,0,0,0-22.56,10h0c-6.09-9.44-18.72,0-31.65,12.23-7.41,7-5.52,14.14-2.56,19-5.09,4.81-9.24,8.49-12.74,11.23H.41c12-21.09,36.89-32.27,36.89-32.27S-.91,198.91,0,175.6s20-34,40.08-36.35,20-2.79,25.4-17.12C68.64,92.77,67.6,97,89.61,107.45s14.68,2.1,17.83-30.41,43-33.55,65-35.65,46.13,71.3,57.67,52.43-5.24-45.36-9.44-73C236.46,4.74,263.31.55,284,0V186.67C276.94,186,261.23,185.78,257.73,197.62Z"/><path class="cls-2" d="M284,225.4v52.38H214.47c3.5-2.74,7.65-6.42,12.74-11.23a26.28,26.28,0,0,0,5,5.87s8.38,4.89,24.62,0,10.68-27.61,4.59-37.05A149.33,149.33,0,0,1,284,225.4Z"/><path class="cls-3" d="M257.73,197.62c-4.55,15.38,9.43,20.28,15.73,18.88,3.63-.81,7.71-3.12,10.53-4.94V186.67C276.94,186,261.23,185.78,257.73,197.62Z"/><path d="M256.84,272.42c-16.24,4.89-24.62,0-24.62,0a26.28,26.28,0,0,1-5-5.87c-3-4.81-4.85-11.93,2.56-19,12.93-12.23,25.56-21.67,31.65-12.23h0C267.52,244.81,273.07,267.53,256.84,272.42Z"/></g></g></svg>