<svg xmlns="http://www.w3.org/2000/svg" viewBox="0 0 375.31 340.43"><defs><style>.cls-1{fill:#ff062b;}.cls-2{fill:#ffa420;}.cls-3{fill:#010308;}</style></defs><title>flower-one</title><g id="Layer_2" data-name="Layer 2"><g id="FONDOS"><path class="cls-1" d="M375.31,0C369,68.29,344.38,141.86,286.75,174.2,259.68,189.4,218.13,186,196,207.75,161,242,145.46,300.05,109.27,329.39,85,349.07,48.45,338.7,0,327.12V77.28a48.07,48.07,0,0,0,10.8-1.41c18.12,14,47.75,34,69.11,34.24C87.84,105,92.6,97.37,95.44,90.51c3.6,11.89,11.56,18.1,18,13.09,7.22-5.59,11-7.43,7-13.15S110,76.34,110,76.34s-6-1.59-10.59-.24c.08-.6.11-.94.11-.94s7.05-19.31,21.72-34.4c8.67,6.17,20.18,5.77,22.78-6.83-3-6.49-4.05-12.58-9-16.77A59,59,0,0,0,135.22,0Z"/><path class="cls-2" d="M135.22,0H0V45.63c2.92-.93,10.31-3,13.27-1C17,47.21,25.86,60.49,21,69.35,19.05,72.8,15,74.76,10.8,75.87c18.12,14,47.75,34,69.11,34.24C87.84,105,92.6,97.37,95.44,90.51a42.05,42.05,0,0,1-1.08-4.39c-1.2-6.31,1.52-9,5-10,.08-.6.11-.94.11-.94s7.05-19.31,21.72-34.4a24.48,24.48,0,0,1-4-3.57c-8.63-9.55,0-17.47,0-17.47s10.48-7.69,16.54-3.5c.43.3.83.62,1.22.94A59,59,0,0,0,135.22,0ZM79.68,64.45S68.5,80.07,54.28,68.88s-2.24-25.56,7.23-28c0,0,12.58-8.16,18.17,5.13S79.68,64.45,79.68,64.45Z"/><path d="M113.47,103.6c-6.47,5-14.43-1.2-18-13.09a42.05,42.05,0,0,1-1.08-4.39c-1.2-6.31,1.52-9,5-10,4.62-1.35,10.59.24,10.59.24s6.53,8.39,10.49,14.11S120.69,98,113.47,103.6Z"/><path d="M144,33.93c-2.6,12.6-14.11,13-22.78,6.83a24.48,24.48,0,0,1-4-3.57c-8.63-9.55,0-17.47,0-17.47s10.48-7.69,16.54-3.5c.43.3.83.62,1.22.94C139.94,21.35,141,27.44,144,33.93Z"/><path class="cls-3" d="M54.28,68.88c14.22,11.19,25.4-4.43,25.4-4.43s5.59-5.12,0-18.4-18.17-5.13-18.17-5.13C52,43.32,40.07,57.7,54.28,68.88Z"/><path d="M21,69.35C19.05,72.8,15,74.76,10.8,75.87A48.07,48.07,0,0,1,0,77.28V45.63c2.92-.93,10.31-3,13.27-1C17,47.21,25.86,60.49,21,69.35Z"/></g></g></svg>