<svg xmlns="http://www.w3.org/2000/svg" viewBox="0 0 53.04 53.1"><defs><style>.cls-1{fill:#ff73ff;}</style></defs><title>instagram-icon</title><g id="Layer_2" data-name="Layer 2"><g id="header_-_footer" data-name="header - footer"><path class="cls-1" d="M0,26.6C0,13.05,10.15.09,26.38,0,42.36-.08,53,12.58,53,26.48c.08,14.39-11.81,26.43-25.88,26.62A26.61,26.61,0,0,1,0,26.6M26.52,12.35c-2.64,0-5.27,0-7.9,0a6,6,0,0,0-6.22,6.1q-.06,8.1,0,16.2a5.93,5.93,0,0,0,5.94,6.12q8.16.13,16.33,0a6,6,0,0,0,6-6.1q0-7.89,0-15.8c0-4.09-2.46-6.52-6.58-6.52H26.52"/><path class="cls-1" d="M38.08,26.54c0,2.72,0,5.45,0,8.17a3.31,3.31,0,0,1-3.57,3.53q-7.83,0-15.68,0c-2.64,0-3.94-1.32-3.94-4,0-5.18,0-10.37,0-15.55,0-2.51,1.39-3.89,3.93-3.89,5.14,0,10.28,0,15.42,0,2.53,0,3.86,1.37,3.87,3.93s0,5.19,0,7.78Zm-18.95,0a7.38,7.38,0,1,0,7.32-7.41,7.44,7.44,0,0,0-7.32,7.41m17-7.74a1.8,1.8,0,0,0-1.75-1.77,1.77,1.77,0,0,0-1.73,1.79,1.68,1.68,0,0,0,1.68,1.68,1.73,1.73,0,0,0,1.8-1.7"/><path class="cls-1" d="M26.49,21.66a4.89,4.89,0,1,1,0,9.78,4.89,4.89,0,1,1,0-9.78"/></g></g></svg>