<svg xmlns="http://www.w3.org/2000/svg" viewBox="0 0 45.64 61.98"><defs><style>.cls-1{fill:#fff;}</style></defs><title>location</title><g id="Layer_2" data-name="Layer 2"><g id="Layer_1-2" data-name="Layer 1"><path class="cls-1" d="M22.82,0A22.85,22.85,0,0,0,0,22.82a22.16,22.16,0,0,0,2,9.31C7.7,44.62,18.64,57.8,21.86,61.54a1.27,1.27,0,0,0,1.92,0C27,57.8,37.94,44.62,43.64,32.13a22.16,22.16,0,0,0,2-9.31A22.85,22.85,0,0,0,22.82,0Zm0,34.67A11.86,11.86,0,1,1,34.67,22.82,11.87,11.87,0,0,1,22.82,34.67Z"/></g></g></svg>