<svg xmlns="http://www.w3.org/2000/svg" viewBox="0 0 128.67 124.18"><defs><style>.cls-1{fill:#ff73ff;}</style></defs><title>Asset 3</title><g id="Layer_2" data-name="Layer 2"><g id="Layer_1-2" data-name="Layer 1"><path class="cls-1" d="M119.8,36.45a8.88,8.88,0,1,1,8.87-8.88A8.88,8.88,0,0,1,119.8,36.45Zm0-13.87a5,5,0,1,0,5,5A5,5,0,0,0,119.8,22.58Z"/><path class="cls-1" d="M14.42,44.77a6.11,6.11,0,1,1,6.1-6.11A6.11,6.11,0,0,1,14.42,44.77Zm0-8.32a2.22,2.22,0,1,0,2.22,2.21A2.22,2.22,0,0,0,14.42,36.45Z"/><path class="cls-1" d="M64.66,124a1.55,1.55,0,0,1-.31,0l-50.54-8.13a2,2,0,0,1-1.64-1.92V84.25a1.94,1.94,0,0,1,2.4-1.89L46.72,90,63,65A1.94,1.94,0,0,1,66.6,66v56A1.95,1.95,0,0,1,64.66,124Zm-48.6-11.73,46.65,7.51V72.58L49.22,93.31a1.94,1.94,0,0,1-2.07.83L16.06,86.71Z"/><path class="cls-1" d="M64.66,124a1.94,1.94,0,0,1-1.26-.46,2,2,0,0,1-.69-1.48V66a1.94,1.94,0,0,1,3.59-1L82,90l32.13-7.68a2,2,0,0,1,1.65.36,1.94,1.94,0,0,1,.74,1.53v29.67a1.94,1.94,0,0,1-1.63,1.92L65,124ZM66.6,72.79v47l46-7.5V86.71L81.53,94.14a2,2,0,0,1-2.1-.86Z"/><path class="cls-1" d="M81.08,94.19a2,2,0,0,1-1.65-.91L63,67.07a1.95,1.95,0,0,1,1.29-2.94l50.07-9.35a1.93,1.93,0,0,1,2.1,1.06l12,24.65a1.94,1.94,0,0,1-1.3,2.74L81.53,94.14A2.3,2.3,0,0,1,81.08,94.19ZM67.81,67.43,82,90l42-10-10.3-21.14Z"/><path class="cls-1" d="M47.6,94.19a2.3,2.3,0,0,1-.45,0L1.49,83.23A2,2,0,0,1,.18,82.15a1.93,1.93,0,0,1,0-1.69L12.83,55.81a2,2,0,0,1,2.08-1L65,64.13a1.93,1.93,0,0,1,1.43,1.15,1.91,1.91,0,0,1-.16,1.82L49.22,93.31A1.93,1.93,0,0,1,47.6,94.19ZM4.79,80,46.72,90,61.44,67.42,15.62,58.86Z"/><path class="cls-1" d="M126.73,124.18H4.71a1.94,1.94,0,0,1,0-3.88h122a1.94,1.94,0,0,1,0,3.88Z"/><path class="cls-1" d="M99.37,109.06a2.77,2.77,0,0,1-1-5.45l.17,0a2.77,2.77,0,1,1,1,5.45"/><path class="cls-1" d="M91.19,110.58a2.77,2.77,0,1,1-1-5.45l.17,0a2.77,2.77,0,1,1,1,5.45"/><path class="cls-1" d="M83,112.11a2.78,2.78,0,0,1-1-5.46l.17,0a2.77,2.77,0,1,1,1,5.45"/><path class="cls-1" d="M14.56,58.63a1.94,1.94,0,0,1-1-3.58l13.1-8.32A1.94,1.94,0,0,1,28.7,50L15.6,58.33A2,2,0,0,1,14.56,58.63Z"/><path class="cls-1" d="M114.72,58.63a1.91,1.91,0,0,1-1-.31l-13-8.32a1.94,1.94,0,1,1,2.09-3.26l13,8.32a1.94,1.94,0,0,1-1.06,3.57Z"/><path class="cls-1" d="M102,10.22h2.56v2.55a2.56,2.56,0,1,0,5.11,0V10.22h2.55a2.56,2.56,0,1,0,0-5.11H109.7V2.55a2.56,2.56,0,0,0-5.11,0V5.11H102a2.56,2.56,0,0,0,0,5.11Z"/><path class="cls-1" d="M17.74,17.9h2.55v2.56a2.56,2.56,0,0,0,5.11,0V17.9H28a2.55,2.55,0,1,0,0-5.1H25.4V10.24a2.56,2.56,0,0,0-5.11,0V12.8H17.74a2.55,2.55,0,1,0,0,5.1Z"/><path class="cls-1" d="M71.79,4.6a22.17,22.17,0,0,0-24.34,6.56,22.69,22.69,0,0,0-5.15,12.6,22,22,0,0,0,3.08,13A22.39,22.39,0,0,0,68.85,47.05,22.17,22.17,0,0,0,86.12,29.13a25.84,25.84,0,0,0,.33-3.72A22.39,22.39,0,0,0,71.79,4.6Zm8.53,22.22c0,.23,0,.47-.06.7v.11a20.32,20.32,0,0,1-.69,2.87,7,7,0,0,1-.45,1.26.64.64,0,0,0-.06.1c-.09.2-.19.4-.29.6a18.84,18.84,0,0,1-1.49,2.47l-.26.34a2.65,2.65,0,0,1-.21.26c-.28.34-.57.67-.88,1s-.62.63-1,.92c-.16.15-.33.29-.5.43l-.51.4a21.14,21.14,0,0,1-2,1.25,13.25,13.25,0,0,1-1.19.6l-.1,0a4.19,4.19,0,0,1-.83.32,20.37,20.37,0,0,1-2.4.67l-.68.13-.24,0a9.25,9.25,0,0,1-1.49.1,22.09,22.09,0,0,1-2.82-.1h0l-.06,0-.68-.12c-.52-.1-1-.22-1.55-.37s-.86-.26-1.28-.42a3.41,3.41,0,0,1-.63-.24l-.09,0a18.19,18.19,0,0,1-2.52-1.4c-.19-.12-.37-.25-.55-.38l-.34-.25c-.26-.21-.51-.43-.76-.65a19.37,19.37,0,0,1-2-2.07c-.09-.11-.53-.72-.07-.08-.08-.12-.17-.23-.26-.35-.25-.36-.5-.73-.73-1.11s-.45-.77-.65-1.16l-.3-.6c-.08-.16-.56-1-.14-.29a9.68,9.68,0,0,1-.84-2.57c-.11-.45-.2-.89-.28-1.35,0,0,0-.1,0-.17a8.31,8.31,0,0,1-.07-.86,19,19,0,0,1,0-2.82c0-.24,0-.47.06-.7v-.11c.1-.52.19-1.05.32-1.57a10,10,0,0,1,.83-2.56s0-.08.06-.1c.09-.21.19-.41.29-.6.23-.47.48-.92.75-1.36s.48-.75.73-1.11c.09-.12.18-.23.26-.35-.45.64,0,0,.07-.08a19.37,19.37,0,0,1,2-2.07c.25-.23.5-.44.76-.65l.34-.26.55-.37a18.19,18.19,0,0,1,2.52-1.4l.09-.05a3.41,3.41,0,0,1,.63-.24c.42-.16.85-.3,1.28-.42s.88-.24,1.33-.33l.67-.13.31,0h0a22.09,22.09,0,0,1,2.82-.1c.47,0,.93.06,1.4.1h.11l.9.17a19.77,19.77,0,0,1,2.82.82l.22.08c.23.09.47.22.69.33.47.23.92.47,1.37.74s.87.55,1.3.84l.36.28c.14.11.28.22.41.34a18.62,18.62,0,0,1,2.16,2.19,2.75,2.75,0,0,1,.22.26s.32.43.38.52c.3.43.57.86.83,1.31s.5.91.73,1.38a4.59,4.59,0,0,1,.27.6c-.26-.79.06.17.11.32a19,19,0,0,1,.84,3.06,3.86,3.86,0,0,1,.11.68c0-.86,0,.17,0,.34,0,.55.07,1.1.07,1.65S80.36,26.35,80.32,26.82Z"/><path class="cls-1" d="M70.45,17.16l-8.69,10.1-3.38-4.12a3,3,0,0,0-4.29,0,3.12,3.12,0,0,0,0,4.3q2.73,3.33,5.47,6.67a3.05,3.05,0,0,0,4.29,0L73.38,23l1.36-1.59a3,3,0,0,0-4.29-4.29Z"/></g></g></svg>