<svg xmlns="http://www.w3.org/2000/svg" viewBox="0 0 116.86 113.53"><defs><style>.cls-1{fill:#ff73ff;}</style></defs><title>manifiesto-one</title><g id="Layer_2" data-name="Layer 2"><g id="Layer_1-2" data-name="Layer 1"><path class="cls-1" d="M32.1,72.23a2.35,2.35,0,1,0-3.21-.86A2.34,2.34,0,0,0,32.1,72.23Z"/><path class="cls-1" d="M22.49,88.4l11.8,20.44a9.37,9.37,0,0,0,16.24-9.37l-7-12.18,6.09-3.51a2.34,2.34,0,0,0,.85-3.2l-3-5.28,44.88-8.81A7,7,0,0,0,98,56L90.19,42.47l5-7.53a2.36,2.36,0,0,0,.07-2.47l-4.69-8.12a2.35,2.35,0,0,0-2.17-1.16l-9,.54-8.65-15a7,7,0,0,0-6-3.51h-.09a7,7,0,0,0-5.92,3.24l-30.61,39L8.2,59A16.4,16.4,0,0,0,22.49,88.4Zm24,13.41a4.69,4.69,0,1,1-8.12,4.69L26.63,86.2l8.12-4.68C48.31,105,46.25,101.44,46.47,101.81ZM41.15,83.23l-2.34-4.06,4.06-2.34,2.34,4.06ZM87.22,28l3.24,5.61-2.89,4.37L82,28.27ZM62.63,11.05a2.35,2.35,0,0,1,4,0L93.92,58.31a2.34,2.34,0,0,1-2,3.51,8.17,8.17,0,0,0-1.29.22L61.83,12.1A12.37,12.37,0,0,0,62.63,11.05Zm-3.92,5L85.8,63,44.92,71,32.49,49.48ZM6.26,79a11.69,11.69,0,0,1,4.29-16L28.81,52.48,40.53,72.77,22.26,83.32A11.73,11.73,0,0,1,6.26,79Z"/><path class="cls-1" d="M24.84,73.71a2.35,2.35,0,0,0-3.21-.85L17.58,75.2a2.35,2.35,0,0,1-3.21-.86,2.34,2.34,0,1,0-4,2.35,7,7,0,0,0,9.6,2.57L24,76.92A2.36,2.36,0,0,0,24.84,73.71Z"/><path class="cls-1" d="M115.12,34.52l-9.05-2.43a2.34,2.34,0,0,0-1.21,4.53l9,2.43a2.34,2.34,0,0,0,1.21-4.53Z"/><path class="cls-1" d="M92.37,1.74l-2.43,9A2.35,2.35,0,0,0,94.47,12L96.9,3a2.34,2.34,0,1,0-4.53-1.21Z"/><path class="cls-1" d="M116.06,14.6a5.15,5.15,0,0,1-.62,3.88l-2.9,4.75-.26.37-2.2,3.61a1.38,1.38,0,0,1-1.9.45l-8.71-5.32a5.14,5.14,0,0,1,5.38-8.77l1.14.7.69-1.14a5.14,5.14,0,0,1,9.38,1.47Z"/></g></g></svg>