<svg xmlns="http://www.w3.org/2000/svg" viewBox="0 0 116.91 108.27"><defs><style>.cls-1{fill:#ff73ff;}.cls-2{fill:none;stroke:#ff73ff;stroke-linecap:round;stroke-miterlimit:10;stroke-width:6px;}</style></defs><title>manifiesto-three</title><g id="Layer_2" data-name="Layer 2"><g id="Layer_1-2" data-name="Layer 1"><path class="cls-1" d="M44.25,75.3A25.76,25.76,0,1,1,70.14,49.66,25.89,25.89,0,0,1,44.25,75.3Zm0-44.14a18.51,18.51,0,1,0,18.5,18.5A18.48,18.48,0,0,0,44.25,31.16ZM8.84,106.32c7.08-9.77,20.76-15.63,35.41-15.63s28.08,5.86,35.16,15.14A4.89,4.89,0,0,0,87.23,100c-8.79-12-25.15-19-42.74-19-17.82,0-34.43,7.57-43.46,19.54a4.77,4.77,0,0,0,1,6.83,4.68,4.68,0,0,0,2.94,1A5.08,5.08,0,0,0,8.84,106.32Z"/><polyline class="cls-2" points="81.75 21.72 92.77 30.42 113.91 3"/><path class="cls-2" d="M111.69,23.78A20.78,20.78,0,1,1,90.91,3"/></g></g></svg>