<svg xmlns="http://www.w3.org/2000/svg" viewBox="0 0 117.49 112.39"><defs><style>.cls-1{fill:#ff73ff;}</style></defs><title>manifiesto-two</title><g id="Layer_2" data-name="Layer 2"><g id="Layer_1-2" data-name="Layer 1"><path class="cls-1" d="M38.55,51.85a3,3,0,0,0,.79.13,2.56,2.56,0,0,0,2.56-1.74,18,18,0,0,1,2.55-5.11A2.55,2.55,0,0,0,40.39,42a23.91,23.91,0,0,0-3.48,6.49,2.56,2.56,0,0,0,1.52,3.28Z"/><path class="cls-1" d="M91.5,61.56A124.12,124.12,0,0,0,104,53.46c10.57-7.92,15-14.89,12.95-20.2s-10.78-7.54-24.88-5.75a2.57,2.57,0,0,0,.64,5.11c12.16-1.56,18.54.15,19.49,2.55s-1.64,7-11.27,14.23c-2.68,2-5.74,4-9,6a33.54,33.54,0,0,0-5.67-17.88h0a33.2,33.2,0,0,0-56.57,2.7l-.54,1A33.25,33.25,0,0,0,26,50.85C16.35,56.35-3.44,69.12.52,79.18c1.76,4.5,7.66,6.41,15.81,6.41A100.74,100.74,0,0,0,38.52,82.5a34.71,34.71,0,0,0,5.11,3.37,33,33,0,0,0,23.55,2.56h0a33.2,33.2,0,0,0,23.65-24h0A23.59,23.59,0,0,0,91.5,61.56Zm-4.65-3.22c-1.94,1.07-3.91,2.12-5.95,3.14a8.14,8.14,0,0,1-1.53-.61,10.21,10.21,0,0,1,3.5-19.26A28.13,28.13,0,0,1,86.85,58.34ZM33.7,43.42c0-.18.17-.38.38-.71a28.07,28.07,0,0,1,45.29-5.6,15.33,15.33,0,0,0-4.32,27.1q-3.37,1.58-7,3.07a20.44,20.44,0,0,0-35.07.2A28.2,28.2,0,0,1,33.7,43.42Zm2.55,29.4a.54.54,0,0,0,0-.18A17.54,17.54,0,0,1,37,70.85,15.32,15.32,0,0,1,57.61,64.1h0a15.07,15.07,0,0,1,5.67,5.11,200.66,200.66,0,0,1-23.45,7.66,27.36,27.36,0,0,1-3.7-4Zm-31,4.45C4.19,74.53,8.89,67.05,25.7,57a33.23,33.23,0,0,0,5.65,17.87h0a32.38,32.38,0,0,0,2.7,3.48C17.32,81.74,6.65,80.82,5.27,77.27Zm40.87,4-.92-.51a209.94,209.94,0,0,0,20.23-6.82,15.18,15.18,0,0,1-.54,9.71A27.84,27.84,0,0,1,46,81.25Zm24.64.33a20.65,20.65,0,0,0-.53-9.6c3.91-1.64,7.66-3.35,11.29-5.11a14.54,14.54,0,0,0,2.55.2h.74c-.28.62-.53,1.26-.84,1.87A27.94,27.94,0,0,1,70.71,81.58Z"/><path class="cls-1" d="M7.9,33.21h2.56v2.55a2.55,2.55,0,0,0,5.1,0V33.21h2.56a2.56,2.56,0,0,0,0-5.11H15.56V25.54a2.55,2.55,0,0,0-5.1,0V28.1H7.9a2.56,2.56,0,0,0,0,5.11Z"/><path class="cls-1" d="M33.44,10.22H36v2.55a2.56,2.56,0,1,0,5.11,0V10.22h2.55a2.56,2.56,0,0,0,0-5.11H41.11V2.55a2.56,2.56,0,0,0-5.11,0V5.11H33.44a2.56,2.56,0,0,0,0,5.11Z"/><path class="cls-1" d="M112.39,76.63h-2.55V74.07a2.56,2.56,0,0,0-5.11,0v2.56h-2.55a2.56,2.56,0,1,0,0,5.11h2.55v2.55a2.56,2.56,0,0,0,5.11,0V81.74h2.55a2.56,2.56,0,1,0,0-5.11Z"/><path class="cls-1" d="M86.85,102.17H84.3V99.62a2.56,2.56,0,1,0-5.11,0v2.55H76.63a2.56,2.56,0,0,0,0,5.11h2.56v2.55a2.56,2.56,0,1,0,5.11,0v-2.55h2.55a2.56,2.56,0,0,0,0-5.11Z"/><path class="cls-1" d="M46.72,40.13a2.56,2.56,0,0,0,4.37-1.82,4.34,4.34,0,0,0,0-.51,1.9,1.9,0,0,0-.15-.46,2.82,2.82,0,0,0-.23-.46l-.31-.38a2.87,2.87,0,0,0-.84-.54,2.55,2.55,0,0,0-3.36,1.32,2.48,2.48,0,0,0-.22,1,2.63,2.63,0,0,0,.21,1A2.59,2.59,0,0,0,46.72,40.13Z"/><circle class="cls-1" cx="58.75" cy="45.98" r="5.11"/></g></g></svg>