<svg xmlns="http://www.w3.org/2000/svg" viewBox="0 0 335.82 189"><defs><style>.cls-1{fill:#fff9f9;}</style></defs><title>ohlala-logo-w</title><g id="Layer_2" data-name="Layer 2"><g id="header_-_footer" data-name="header - footer"><path class="cls-1" d="M137.71,168a10,10,0,0,1-2.67,0l-.27-1.62a10.85,10.85,0,0,0,2.63,0c1.32-.22,2.35-.82,2-2.61-.21-1.22-1-1.71-2-2.17l-1.58-.72a4.16,4.16,0,0,1-2.68-3c-.47-2.77,1.58-4,3.39-4.28a6.17,6.17,0,0,1,2.43.06l.27,1.55a7.72,7.72,0,0,0-2.45-.09c-1.35.23-2.18.87-1.93,2.31.17,1,1,1.47,1.94,1.94l1.24.58c1.38.65,2.79,1.43,3.13,3.43.56,3.31-1.35,4.24-3.49,4.6"/><polygon class="cls-1" points="160.71 163.9 159.57 157.17 154.65 158.01 155.79 164.73 154.02 165.03 151.69 151.26 153.46 150.96 154.39 156.47 159.31 155.64 158.38 150.13 160.15 149.83 162.48 163.6 160.71 163.9"/><path class="cls-1" d="M179.33,161c-1.73.3-4.5.32-5.63-6.33s1.64-7.56,3.23-7.83,4.51-.28,5.63,6.33-1.5,7.54-3.23,7.83m-2.16-12.77c-1.38.24-2.49,1.44-1.69,6.14s2.41,5.44,3.61,5.23,2.5-1.37,1.7-6.13c-.78-4.58-2.24-5.47-3.62-5.24"/><path class="cls-1" d="M206.8,156.1l-2.31.39-3.53-9c-.53-1.34-1.22-3.37-1.22-3.37s0,2.14-.06,3.59l-.38,9.7-2.28.38-4.91-13.33,2-.35,2.81,9.1c.36,1.13,1,3.45,1,3.45s0-2.38,0-3.62l.4-9.64,2.42-.41,3.5,9c.46,1.15,1.21,3.41,1.21,3.41s-.11-2.39-.15-3.59l-.35-9.51,2-.35Z"/><path class="cls-1" d="M226.74,152.72l-1.53-3a6.43,6.43,0,0,0-1.9-2.47c-.55.18-1.12.29-1.7.43l1,5.71-1.77.3L218.47,140l2.89-.49c2.7-.46,5.06-.35,5.64,3a3.57,3.57,0,0,1-2.07,4.16,5.3,5.3,0,0,1,1.75,2l2.19,3.69Zm-5.44-11.6-.79.13.85,5c3.19-.64,4.21-1.46,3.87-3.49-.37-2.18-1.67-2.06-3.93-1.68"/><path class="cls-1" d="M244.54,149.91c-1.73.29-4.5.32-5.63-6.33s1.64-7.56,3.23-7.83,4.51-.28,5.63,6.33-1.5,7.54-3.23,7.83m-2.16-12.77c-1.38.24-2.49,1.44-1.7,6.14s2.42,5.44,3.62,5.23,2.5-1.37,1.7-6.13c-.78-4.58-2.25-5.47-3.62-5.24"/><path class="cls-1" d="M265,146.45c-1.73.29-4.5.31-5.63-6.34s1.64-7.56,3.23-7.83,4.5-.27,5.62,6.34-1.49,7.53-3.22,7.83m-2.17-12.77c-1.37.23-2.48,1.43-1.69,6.13s2.42,5.44,3.62,5.24,2.5-1.37,1.69-6.13c-.77-4.59-2.24-5.47-3.62-5.24"/><path class="cls-1" d="M291.34,141.78,290,134.61c-.35-1.82-.57-3.57-.57-3.57s-.36,1.82-.8,3.39L287,140.15l-3.43-4.86c-1-1.39-1.86-2.92-1.86-2.92s.37,1.65.64,3.53l1.08,7.22-1.75.3-1.86-13.85,1.46-.25,5.19,7.72,2.38-9,1.44-.24,2.8,13.69Z"/><path class="cls-1" d="M42.16,163a13.42,13.42,0,0,1-4.68.07,9.27,9.27,0,0,1-7.09-5.46,13.63,13.63,0,0,1-1.16-6L27.44,85.32a16.46,16.46,0,0,1,.95-6.39,15.18,15.18,0,0,1,2.82-4.82,14.33,14.33,0,0,1,4-3.19A16.38,16.38,0,0,1,40,69.26l2.3-.42a13.53,13.53,0,0,1,4.62,0,9.21,9.21,0,0,1,7.15,5.44,15,15,0,0,1,1.3,6L57,146.49a18.36,18.36,0,0,1-1.08,6.41,15.18,15.18,0,0,1-2.82,4.82,14.61,14.61,0,0,1-4,3.19,16,16,0,0,1-4.6,1.63Zm-1.08-84.1c-1.62.29-2.35,2.33-2.2,6.09l1.44,62.87q.1,5.67,2.54,5.22l.52-.09q2.17-.4,2.06-6.07L44,84q-.24-5.64-2.55-5.22Z"/><polygon class="cls-1" points="109.28 57.39 111.44 149.51 100.04 151.59 99.17 109.93 94.18 110.84 95.17 152.48 83.9 154.54 81.62 62.45 93.02 60.36 94.04 102.13 98.91 101.24 97.89 59.47 109.28 57.39"/><polygon class="cls-1" points="147.11 50.64 149.13 134.05 159.63 132.13 159.76 140.84 137.99 144.82 135.71 52.73 147.11 50.64"/><path class="cls-1" d="M200,133.49l-2.42-23.38-6.14,1.12-1.3,24.06-9.6,1.76,5.4-93.5,14.48-2.65,10.47,90.6Zm-8.08-31.22,4.74-.86-2.72-27.16-.51.09Z"/><polygon class="cls-1" points="245.34 32.68 247.35 116.09 257.85 114.17 257.99 122.88 236.22 126.86 233.94 34.77 245.34 32.68"/><path class="cls-1" d="M298.41,115.32,296,91.94l-6.15,1.13-1.29,24.05-9.61,1.76,5.41-93.5,14.47-2.64,10.47,90.59Zm-8.09-31.21,4.74-.87-2.72-27.16-.51.09Z"/><polygon class="cls-1" points="2.65 189 0 60.79 2.09 60.41 333.71 0 335.82 127.97 307.27 132.77 306.44 127.85 330.76 123.76 328.83 5.96 5.08 64.94 7.51 183.03 121.18 162.05 122.08 166.95 2.65 189"/><path class="cls-1" d="M128.08,101.26a5.12,5.12,0,0,0-2.62-3.36,3.26,3.26,0,0,0-.38-.18l-.27-.13-.09,0a3.32,3.32,0,0,0-1.36-.25,3.87,3.87,0,0,0-2.8,1.16l-1.56,1.9a4.27,4.27,0,0,0-1.09,2.28,3.91,3.91,0,0,0,.47,2.52,5.42,5.42,0,0,0,8.41,1.1,5.35,5.35,0,0,0,1.29-5"/></g></g></svg>