<svg xmlns="http://www.w3.org/2000/svg" viewBox="0 0 53.02 53.08"><defs><style>.cls-1{fill:#ff73ff;}</style></defs><title>whatsapp-icon</title><g id="Layer_2" data-name="Layer 2"><g id="header_-_footer" data-name="header - footer"><path class="cls-1" d="M0,26.59C0,12.07,11.8,0,26.11,0A26.51,26.51,0,0,1,53,26.49C53,40.94,42,52.87,26.87,53.08A26.29,26.29,0,0,1,0,26.59M12.5,40.52c2.46-.78,4.65-1.54,6.87-2.15a3.52,3.52,0,0,1,2.2.12c9.53,4.22,20.5-2.58,20.67-12.85a14.58,14.58,0,1,0-27.59,6.28,2.71,2.71,0,0,1,.13,1.82c-.66,2.18-1.44,4.33-2.28,6.78"/><path class="cls-1" d="M16.4,36.79A25.8,25.8,0,0,0,16,28.91c-1.37-4.94-.29-9.29,3.58-12.68a11.56,11.56,0,0,1,13-2,11.54,11.54,0,0,1,7.26,11c.16,8.89-9.44,14.86-17.49,10.9A3.7,3.7,0,0,0,19.05,36c-.81.33-1.66.53-2.65.84m14.92-4.27a16,16,0,0,0,3.08-1.73c1.13-1,.82-2.18-.54-2.85a10.07,10.07,0,0,1-1.19-.58,1.29,1.29,0,0,0-2.14.5,1.26,1.26,0,0,1-2.15.42c-1.27-1.05-2.5-2.15-3.7-3.27a.94.94,0,0,1,.08-1.57,1.61,1.61,0,0,0,.29-2.24,15.49,15.49,0,0,1-.63-1.45,1.55,1.55,0,0,0-2.78-.49,3.87,3.87,0,0,0-.51,5,21.22,21.22,0,0,0,4.22,5.13c1.68,1.36,3.88,2.08,6,3.15"/></g></g></svg>